<svg width="207.173" height="70" xmlns="http://www.w3.org/2000/svg">
 <defs>
  <linearGradient y2="-0.07792" x2="0.16633" y1="1.077937" x1="0.833663" id="SVGID_1_">
   <stop stop-color="#3C9EDF" offset="0"/>
   <stop stop-color="#2C7CD3" offset="1"/>
  </linearGradient>
 </defs>
 <g>
  <title>background</title>
  <rect fill="none" id="canvas_background" height="402" width="582" y="-1" x="-1"/>
 </g>
 <g>
  <title>Layer 1</title>
  <path id="svg_1" d="m3,0l64,0c1.656,0 3,1.343 3,3l0,64c0,1.657 -1.344,3 -3,3l-64,0c-1.657,0 -3,-1.343 -3,-3l0,-64c0,-1.657 1.343,-3 3,-3zm33.595,33.51l18.778,23.49l-12.51,0l-13.037,-17.298l-3.838,4.692l0,12.606l-9.975,0l0,-44l9.975,0l0,19.358l15.467,-19.358l12.504,0l-17.364,20.51z" fill="url(#SVGID_1_)" clip-rule="evenodd" fill-rule="evenodd"/>
  <text stroke="null" transform="matrix(3.1475843058267694,0,0,2.5814319092280673,-240.64894645044362,6.305013722941942) " font-style="normal" font-weight="bold" xml:space="preserve" text-anchor="start" font-family="Helvetica, Arial, sans-serif" font-size="24" id="svg_18" y="20.777115" x="100.007017" stroke-width="11" fill="#333333">IJA</text>
 </g>
</svg>